  0
SECTION
  2
HEADER
  9
$ACADVER
  1
AC1015
  9
$HANDSEED
  5
14D
  9
$INSUNITS
 70
1
  9
$MEASUREMENT
 70
0
  9
$LUNITS
 70
2
  0
ENDSEC
  0
SECTION
  2
TABLES
  0
TABLE
  2
LTYPE
  5
12D
330
0
100
AcDbSymbolTable
 70
1
  0
LTYPE
  5
12E
330
12D
100
AcDbSymbolTableRecord
100
AcDbLinetypeTableRecord
  2
CONTINUOUS
 70
0
  3
Solid line
 72
65
 73
0
 40
0.0
  0
ENDTAB
  0
TABLE
  2
LAYER
  5
12F
330
0
100
AcDbSymbolTable
 70
1
  0
LAYER
  5
130
330
12F
100
AcDbSymbolTableRecord
100
AcDbLayerTableRecord
  2
0
 70
0
 62
7
  6
CONTINUOUS
370
25
390
F
  0
ENDTAB
  0
TABLE
  2
BLOCK_RECORD
  5
131
330
0
100
AcDbSymbolTable
 70
6
  0
BLOCK_RECORD
  5
101
330
131
100
AcDbSymbolTableRecord
100
AcDbBlockTableRecord
  2
*Model_Space
340
0
 70
0
  0
BLOCK_RECORD
  5
102
330
131
100
AcDbSymbolTableRecord
100
AcDbBlockTableRecord
  2
*Paper_Space
340
0
 70
0
  0
BLOCK_RECORD
  5
103
330
131
100
AcDbSymbolTableRecord
100
AcDbBlockTableRecord
  2
FLOW_SOURCE
340
0
 70
0
  0
BLOCK_RECORD
  5
109
330
131
100
AcDbSymbolTableRecord
100
AcDbBlockTableRecord
  2
FLOW_PROCESS
340
0
 70
0
  0
BLOCK_RECORD
  5
112
330
131
100
AcDbSymbolTableRecord
100
AcDbBlockTableRecord
  2
FLOW_SPLIT
340
0
 70
0
  0
BLOCK_RECORD
  5
11B
330
131
100
AcDbSymbolTableRecord
100
AcDbBlockTableRecord
  2
FLOW_SINK
340
0
 70
0
  0
ENDTAB
  0
ENDSEC
  0
SECTION
  2
BLOCKS
  0
BLOCK
  5
132
330
101
100
AcDbEntity
  8
0
100
AcDbBlockBegin
  2
*Model_Space
 70
0
 10
0.0
 20
0.0
 30
0.0
  3
*Model_Space
  1

  0
ENDBLK
  5
133
330
101
100
AcDbEntity
  8
0
100
AcDbBlockEnd
  0
BLOCK
  5
134
330
102
100
AcDbEntity
  8
0
100
AcDbBlockBegin
  2
*Paper_Space
 70
0
 10
0.0
 20
0.0
 30
0.0
  3
*Paper_Space
  1

  0
ENDBLK
  5
135
330
102
100
AcDbEntity
  8
0
100
AcDbBlockEnd
  0
BLOCK
  5
136
330
103
100
AcDbEntity
  8
0
100
AcDbBlockBegin
  2
FLOW_SOURCE
 70
0
 10
0.0
 20
0.0
 30
0.0
  3
FLOW_SOURCE
  1

  0
LWPOLYLINE
  5
104
330
103
100
AcDbEntity
  8
0
100
AcDbPolyline
 90
4
 70
1
 10
-0.800000
 20
-0.500000
 10
-0.800000
 20
0.500000
 10
0.800000
 20
0.500000
 10
0.800000
 20
-0.500000
  0
LWPOLYLINE
  5
105
330
103
100
AcDbEntity
  8
0
100
AcDbPolyline
 90
4
 70
0
 10
-0.350000
 20
0.300000
 10
0.350000
 20
0.000000
 10
-0.350000
 20
-0.300000
 10
-0.350000
 20
0.300000
  0
LWPOLYLINE
  5
106
330
103
100
AcDbEntity
  8
0
100
AcDbPolyline
 90
2
 70
0
 10
0.800000
 20
0.000000
 10
0.980000
 20
0.000000
  0
LWPOLYLINE
  5
107
330
103
100
AcDbEntity
  8
0
100
AcDbPolyline
 90
2
 70
0
 10
0.000000
 20
0.500000
 10
0.000000
 20
0.680000
  0
LWPOLYLINE
  5
108
330
103
100
AcDbEntity
  8
0
100
AcDbPolyline
 90
2
 70
0
 10
0.000000
 20
-0.500000
 10
0.000000
 20
-0.680000
  0
ENDBLK
  5
137
330
103
100
AcDbEntity
  8
0
100
AcDbBlockEnd
  0
BLOCK
  5
138
330
109
100
AcDbEntity
  8
0
100
AcDbBlockBegin
  2
FLOW_PROCESS
 70
0
 10
0.0
 20
0.0
 30
0.0
  3
FLOW_PROCESS
  1

  0
LWPOLYLINE
  5
10A
330
109
100
AcDbEntity
  8
0
100
AcDbPolyline
 90
4
 70
1
 10
-0.800000
 20
-0.500000
 10
-0.800000
 20
0.500000
 10
0.800000
 20
0.500000
 10
0.800000
 20
-0.500000
  0
LWPOLYLINE
  5
10B
330
109
100
AcDbEntity
  8
0
100
AcDbPolyline
 90
2
 70
0
 10
-0.450000
 20
0.000000
 10
-0.150000
 20
0.000000
  0
LWPOLYLINE
  5
10C
330
109
100
AcDbEntity
  8
0
100
AcDbPolyline
 90
5
 70
0
 10
-0.150000
 20
-0.280000
 10
-0.150000
 20
0.280000
 10
0.150000
 20
0.280000
 10
0.150000
 20
-0.280000
 10
-0.150000
 20
-0.280000
  0
LWPOLYLINE
  5
10D
330
109
100
AcDbEntity
  8
0
100
AcDbPolyline
 90
2
 70
0
 10
0.150000
 20
0.000000
 10
0.450000
 20
0.000000
  0
LWPOLYLINE
  5
10E
330
109
100
AcDbEntity
  8
0
100
AcDbPolyline
 90
2
 70
0
 10
-0.800000
 20
0.000000
 10
-0.980000
 20
0.000000
  0
LWPOLYLINE
  5
10F
330
109
100
AcDbEntity
  8
0
100
AcDbPolyline
 90
2
 70
0
 10
0.800000
 20
0.000000
 10
0.980000
 20
0.000000
  0
LWPOLYLINE
  5
110
330
109
100
AcDbEntity
  8
0
100
AcDbPolyline
 90
2
 70
0
 10
0.000000
 20
0.500000
 10
0.000000
 20
0.680000
  0
LWPOLYLINE
  5
111
330
109
100
AcDbEntity
  8
0
100
AcDbPolyline
 90
2
 70
0
 10
0.000000
 20
-0.500000
 10
0.000000
 20
-0.680000
  0
ENDBLK
  5
139
330
109
100
AcDbEntity
  8
0
100
AcDbBlockEnd
  0
BLOCK
  5
13A
330
112
100
AcDbEntity
  8
0
100
AcDbBlockBegin
  2
FLOW_SPLIT
 70
0
 10
0.0
 20
0.0
 30
0.0
  3
FLOW_SPLIT
  1

  0
LWPOLYLINE
  5
113
330
112
100
AcDbEntity
  8
0
100
AcDbPolyline
 90
4
 70
1
 10
-0.800000
 20
-0.600000
 10
-0.800000
 20
0.600000
 10
0.800000
 20
0.600000
 10
0.800000
 20
-0.600000
  0
LWPOLYLINE
  5
114
330
112
100
AcDbEntity
  8
0
100
AcDbPolyline
 90
3
 70
0
 10
-0.450000
 20
0.000000
 10
0.000000
 20
0.000000
 10
0.450000
 20
0.280000
  0
LWPOLYLINE
  5
115
330
112
100
AcDbEntity
  8
0
100
AcDbPolyline
 90
2
 70
0
 10
0.000000
 20
0.000000
 10
0.450000
 20
-0.280000
  0
LWPOLYLINE
  5
116
330
112
100
AcDbEntity
  8
0
100
AcDbPolyline
 90
2
 70
0
 10
-0.800000
 20
0.000000
 10
-1.016000
 20
0.000000
  0
LWPOLYLINE
  5
117
330
112
100
AcDbEntity
  8
0
100
AcDbPolyline
 90
2
 70
0
 10
0.800000
 20
0.200000
 10
1.016000
 20
0.200000
  0
LWPOLYLINE
  5
118
330
112
100
AcDbEntity
  8
0
100
AcDbPolyline
 90
2
 70
0
 10
0.800000
 20
-0.200000
 10
1.016000
 20
-0.200000
  0
LWPOLYLINE
  5
119
330
112
100
AcDbEntity
  8
0
100
AcDbPolyline
 90
2
 70
0
 10
0.000000
 20
0.600000
 10
0.000000
 20
0.816000
  0
LWPOLYLINE
  5
11A
330
112
100
AcDbEntity
  8
0
100
AcDbPolyline
 90
2
 70
0
 10
0.000000
 20
-0.600000
 10
0.000000
 20
-0.816000
  0
ENDBLK
  5
13B
330
112
100
AcDbEntity
  8
0
100
AcDbBlockEnd
  0
BLOCK
  5
13C
330
11B
100
AcDbEntity
  8
0
100
AcDbBlockBegin
  2
FLOW_SINK
 70
0
 10
0.0
 20
0.0
 30
0.0
  3
FLOW_SINK
  1

  0
LWPOLYLINE
  5
11C
330
11B
100
AcDbEntity
  8
0
100
AcDbPolyline
 90
4
 70
1
 10
-0.800000
 20
-0.500000
 10
-0.800000
 20
0.500000
 10
0.800000
 20
0.500000
 10
0.800000
 20
-0.500000
  0
LWPOLYLINE
  5
11D
330
11B
100
AcDbEntity
  8
0
100
AcDbPolyline
 90
2
 70
0
 10
-0.450000
 20
0.000000
 10
0.050000
 20
0.000000
  0
LWPOLYLINE
  5
11E
330
11B
100
AcDbEntity
  8
0
100
AcDbPolyline
 90
2
 70
0
 10
0.050000
 20
-0.300000
 10
0.050000
 20
0.300000
  0
LWPOLYLINE
  5
11F
330
11B
100
AcDbEntity
  8
0
100
AcDbPolyline
 90
2
 70
0
 10
0.250000
 20
-0.180000
 10
0.250000
 20
0.180000
  0
LWPOLYLINE
  5
120
330
11B
100
AcDbEntity
  8
0
100
AcDbPolyline
 90
2
 70
0
 10
0.420000
 20
-0.080000
 10
0.420000
 20
0.080000
  0
LWPOLYLINE
  5
121
330
11B
100
AcDbEntity
  8
0
100
AcDbPolyline
 90
2
 70
0
 10
-0.800000
 20
0.000000
 10
-0.980000
 20
0.000000
  0
LWPOLYLINE
  5
122
330
11B
100
AcDbEntity
  8
0
100
AcDbPolyline
 90
2
 70
0
 10
0.000000
 20
0.500000
 10
0.000000
 20
0.680000
  0
LWPOLYLINE
  5
123
330
11B
100
AcDbEntity
  8
0
100
AcDbPolyline
 90
2
 70
0
 10
0.000000
 20
-0.500000
 10
0.000000
 20
-0.680000
  0
ENDBLK
  5
13D
330
11B
100
AcDbEntity
  8
0
100
AcDbBlockEnd
  0
ENDSEC
  0
SECTION
  2
ENTITIES
  0
INSERT
  5
124
330
101
100
AcDbEntity
  8
0
100
AcDbBlockReference
  2
FLOW_SOURCE
 10
-6.000000
 20
0.000000
 30
0.0
 41
1.000000
 42
1.000000
 43
1.000000
 50
0.000000
  0
INSERT
  5
125
330
101
100
AcDbEntity
  8
0
100
AcDbBlockReference
  2
FLOW_PROCESS
 10
-2.000000
 20
0.000000
 30
0.0
 41
1.000000
 42
1.000000
 43
1.000000
 50
0.000000
  0
INSERT
  5
126
330
101
100
AcDbEntity
  8
0
100
AcDbBlockReference
  2
FLOW_SPLIT
 10
2.000000
 20
0.000000
 30
0.0
 41
1.000000
 42
1.000000
 43
1.000000
 50
0.000000
  0
INSERT
  5
127
330
101
100
AcDbEntity
  8
0
100
AcDbBlockReference
  2
FLOW_SINK
 10
6.000000
 20
1.500000
 30
0.0
 41
1.000000
 42
1.000000
 43
1.000000
 50
0.000000
  0
INSERT
  5
128
330
101
100
AcDbEntity
  8
0
100
AcDbBlockReference
  2
FLOW_SINK
 10
6.000000
 20
-1.500000
 30
0.0
 41
1.000000
 42
1.000000
 43
1.000000
 50
0.000000
  0
LWPOLYLINE
  5
129
330
101
100
AcDbEntity
  8
0
100
AcDbPolyline
 90
2
 70
0
 10
-5.200000
 20
0.000000
 10
-2.800000
 20
0.000000
  0
LWPOLYLINE
  5
12A
330
101
100
AcDbEntity
  8
0
100
AcDbPolyline
 90
2
 70
0
 10
-1.200000
 20
0.000000
 10
1.200000
 20
0.000000
  0
LWPOLYLINE
  5
12B
330
101
100
AcDbEntity
  8
0
100
AcDbPolyline
 90
2
 70
0
 10
2.800000
 20
0.200000
 10
5.200000
 20
1.500000
  0
LWPOLYLINE
  5
12C
330
101
100
AcDbEntity
  8
0
100
AcDbPolyline
 90
2
 70
0
 10
2.800000
 20
-0.200000
 10
5.200000
 20
-1.500000
  0
ENDSEC
  0
EOF
